<svg width="11" height="14" viewBox="0 0 11 14" fill="none" xmlns="http://www.w3.org/2000/svg">
<path d="M9.6 1.44H8.16V0.96C8.15924 0.705626 8.05785 0.461887 7.87798 0.282017C7.69811 0.102146 7.45437 0.000759709 7.2 0H3.36C3.10563 0.000759709 2.86189 0.102146 2.68202 0.282017C2.50215 0.461887 2.40076 0.705626 2.4 0.96V1.44H0.96C0.705626 1.44076 0.461887 1.54215 0.282017 1.72202C0.102146 1.90189 0.000759709 2.14563 0 2.4V12.48C0.000759709 12.7344 0.102146 12.9781 0.282017 13.158C0.461887 13.3379 0.705626 13.4392 0.96 13.44H5.28V12.48H0.96V2.4H2.4V3.84H8.16V2.4H9.6V7.68H10.56V2.4C10.5592 2.14563 10.4579 1.90189 10.278 1.72202C10.0981 1.54215 9.85437 1.44076 9.6 1.44ZM7.2 2.88H3.36V0.96H7.2V2.88Z" fill="#A6ABC8"/>
</svg>
