<svg width="11" height="10" viewBox="0 0 11 10" fill="none" xmlns="http://www.w3.org/2000/svg">
<path fill-rule="evenodd" clip-rule="evenodd" d="M6.82674 4.80584C5.69981 4.59789 4.84615 3.61018 4.84615 2.42308C4.84615 1.08485 5.931 0 7.26923 0C8.60746 0 9.69231 1.08485 9.69231 2.42308C9.69231 3.63717 8.79939 4.64271 7.63443 4.81881V5.65385H10.0962C10.3192 5.65385 10.5 5.83465 10.5 6.05769V9.28846C10.5 9.5115 10.3192 9.69231 10.0962 9.69231C9.87312 9.69231 9.69231 9.5115 9.69231 9.28846V6.46154H4.03846V9.28846C4.03846 9.5115 3.85765 9.69231 3.63462 9.69231C3.41158 9.69231 3.23077 9.5115 3.23077 9.28846V1.61538H0.807692V9.28846C0.807692 9.5115 0.626884 9.69231 0.403846 9.69231C0.180808 9.69231 0 9.5115 0 9.28846V1.21154C0 0.9885 0.180808 0.807692 0.403846 0.807692H3.63462C3.85765 0.807692 4.03846 0.9885 4.03846 1.21154V5.65385H6.82674V4.80584ZM5.65385 2.42308C5.65385 1.53092 6.37708 0.807692 7.26923 0.807692C8.16138 0.807692 8.88461 1.53092 8.88461 2.42308C8.88461 3.18963 8.35068 3.83148 7.63443 3.99701V3.63462C7.63443 3.41158 7.45362 3.23077 7.23058 3.23077C7.00754 3.23077 6.82674 3.41158 6.82674 3.63462V3.97711C6.1497 3.7847 5.65385 3.16179 5.65385 2.42308Z" fill="#757575"/>
</svg>
