<svg width="12" height="12" viewBox="0 0 12 12" fill="none" xmlns="http://www.w3.org/2000/svg">
<path fill-rule="evenodd" clip-rule="evenodd" d="M5.82523 0.666687C5.16775 0.666687 4.63476 1.19968 4.63476 1.85716V3.04764H1.85698C1.1995 3.04764 0.666504 3.58063 0.666504 4.23812V10.5873C0.666504 11.2448 1.1995 11.7778 1.85698 11.7778H6.61888C7.27637 11.7778 7.80936 11.2448 7.80936 10.5873V9.39684H10.5871C11.2446 9.39684 11.7776 8.86385 11.7776 8.20637V1.85716C11.7776 1.19968 11.2446 0.666687 10.5871 0.666687H5.82523ZM7.01571 9.39684H5.82523C5.16775 9.39684 4.63476 8.86385 4.63476 8.20637V3.84129H1.85698C1.63782 3.84129 1.46015 4.01895 1.46015 4.23812V10.5873C1.46015 10.8065 1.63782 10.9841 1.85698 10.9841H6.61888C6.83805 10.9841 7.01571 10.8065 7.01571 10.5873V9.39684ZM5.42841 1.85716C5.42841 1.638 5.60607 1.46034 5.82523 1.46034H10.5871C10.8063 1.46034 10.984 1.638 10.984 1.85716V8.20637C10.984 8.42553 10.8063 8.60319 10.5871 8.60319H5.82523C5.60607 8.60319 5.42841 8.42553 5.42841 8.20637V1.85716Z" fill="#757575"/>
<path fill-rule="evenodd" clip-rule="evenodd" d="M6.22206 3.44446C6.22206 3.2253 6.39972 3.04764 6.61888 3.04764H9.79349C10.0126 3.04764 10.1903 3.2253 10.1903 3.44446C10.1903 3.66363 10.0126 3.84129 9.79349 3.84129H6.61888C6.39972 3.84129 6.22206 3.66363 6.22206 3.44446Z" fill="#757575"/>
<path fill-rule="evenodd" clip-rule="evenodd" d="M6.22206 5.03177C6.22206 4.81261 6.39972 4.63494 6.61888 4.63494H8.20619C8.42535 4.63494 8.60301 4.81261 8.60301 5.03177C8.60301 5.25093 8.42535 5.42859 8.20619 5.42859H6.61888C6.39972 5.42859 6.22206 5.25093 6.22206 5.03177Z" fill="#757575"/>
</svg>
