<svg width="11" height="11" viewBox="0 0 11 11" fill="none" xmlns="http://www.w3.org/2000/svg">
<path d="M4.53514 2.23674C4.58285 2.24697 4.62808 2.2665 4.66824 2.29422C4.7084 2.32193 4.74271 2.35729 4.7692 2.39827C4.79569 2.43925 4.81384 2.48504 4.82263 2.53304C4.83142 2.58104 4.83066 2.6303 4.8204 2.678L4.59829 3.71429H6.43834L6.69314 2.522C6.71383 2.42566 6.77194 2.34148 6.85469 2.28798C6.93744 2.23449 7.03806 2.21606 7.1344 2.23674C7.23074 2.25743 7.31492 2.31554 7.36842 2.39829C7.42191 2.48104 7.44034 2.58166 7.41966 2.678L7.19829 3.71429H7.80074C7.89925 3.71429 7.99373 3.75342 8.06338 3.82307C8.13304 3.89273 8.17217 3.98721 8.17217 4.08571C8.17217 4.18422 8.13304 4.2787 8.06338 4.34835C7.99373 4.41801 7.89925 4.45714 7.80074 4.45714H7.03931L6.72137 5.94286H7.42857C7.52708 5.94286 7.62155 5.98199 7.69121 6.05165C7.76087 6.1213 7.8 6.21578 7.8 6.31429C7.8 6.41279 7.76087 6.50727 7.69121 6.57693C7.62155 6.64658 7.52708 6.68571 7.42857 6.68571H6.56166L6.30611 7.87726C6.28543 7.9736 6.22732 8.05778 6.14456 8.11127C6.06181 8.16477 5.9612 8.1832 5.86486 8.16251C5.76852 8.14183 5.68434 8.08372 5.63084 8.00096C5.57734 7.91821 5.55891 7.8176 5.5796 7.72126L5.80171 6.68571H3.96166L3.70611 7.878C3.69587 7.9257 3.67633 7.97092 3.64861 8.01108C3.62089 8.05123 3.58554 8.08553 3.54456 8.11201C3.46181 8.16551 3.3612 8.18394 3.26486 8.16326C3.16852 8.14257 3.08434 8.08446 3.03084 8.00171C2.97734 7.91896 2.95891 7.81834 2.9796 7.722L3.20246 6.68571H2.6C2.50149 6.68571 2.40702 6.64658 2.33736 6.57693C2.2677 6.50727 2.22857 6.41279 2.22857 6.31429C2.22857 6.21578 2.2677 6.1213 2.33736 6.05165C2.40702 5.98199 2.50149 5.94286 2.6 5.94286H3.36069L3.68011 4.45714H2.97143C2.87292 4.45714 2.77845 4.41801 2.70879 4.34835C2.63913 4.2787 2.6 4.18422 2.6 4.08571C2.6 3.98721 2.63913 3.89273 2.70879 3.82307C2.77845 3.75342 2.87292 3.71429 2.97143 3.71429H3.83834L4.09389 2.522C4.10412 2.47429 4.12365 2.42906 4.15136 2.3889C4.17908 2.34874 4.21443 2.31444 4.25541 2.28795C4.29639 2.26146 4.34219 2.2433 4.39018 2.23451C4.43818 2.22573 4.48744 2.22649 4.53514 2.23674ZM4.12063 5.94286H5.96069L6.27937 4.45714H4.43931L4.12063 5.94286ZM0 1.85714C0 1.3646 0.195663 0.892226 0.543945 0.543945C0.892226 0.195663 1.3646 0 1.85714 0H8.54286C9.0354 0 9.50777 0.195663 9.85606 0.543945C10.2043 0.892226 10.4 1.3646 10.4 1.85714V8.54286C10.4 9.0354 10.2043 9.50777 9.85606 9.85606C9.50777 10.2043 9.0354 10.4 8.54286 10.4H1.85714C1.3646 10.4 0.892226 10.2043 0.543945 9.85606C0.195663 9.50777 0 9.0354 0 8.54286V1.85714ZM1.85714 0.742857C1.56162 0.742857 1.27819 0.860255 1.06922 1.06922C0.860255 1.27819 0.742857 1.56162 0.742857 1.85714V8.54286C0.742857 8.83838 0.860255 9.12181 1.06922 9.33078C1.27819 9.53974 1.56162 9.65714 1.85714 9.65714H8.54286C8.83838 9.65714 9.12181 9.53974 9.33078 9.33078C9.53974 9.12181 9.65714 8.83838 9.65714 8.54286V1.85714C9.65714 1.56162 9.53974 1.27819 9.33078 1.06922C9.12181 0.860255 8.83838 0.742857 8.54286 0.742857H1.85714Z" fill="#757575"/>
</svg>
