<svg width="14" height="14" viewBox="0 0 14 14" fill="none" xmlns="http://www.w3.org/2000/svg">
<path fill-rule="evenodd" clip-rule="evenodd" d="M2.5 1.375C1.87868 1.375 1.375 1.87868 1.375 2.5C1.375 3.12132 1.87868 3.625 2.5 3.625C3.12132 3.625 3.625 3.12132 3.625 2.5C3.625 1.87868 3.12132 1.375 2.5 1.375ZM0.625 2.5C0.625 1.46447 1.46447 0.625 2.5 0.625C3.53553 0.625 4.375 1.46447 4.375 2.5C4.375 3.53553 3.53553 4.375 2.5 4.375C1.46447 4.375 0.625 3.53553 0.625 2.5Z" fill="#A6ABC8"/>
<path fill-rule="evenodd" clip-rule="evenodd" d="M11.5 10.375C10.8787 10.375 10.375 10.8787 10.375 11.5C10.375 12.1213 10.8787 12.625 11.5 12.625C12.1213 12.625 12.625 12.1213 12.625 11.5C12.625 10.8787 12.1213 10.375 11.5 10.375ZM9.625 11.5C9.625 10.4645 10.4645 9.625 11.5 9.625C12.5355 9.625 13.375 10.4645 13.375 11.5C13.375 12.5355 12.5355 13.375 11.5 13.375C10.4645 13.375 9.625 12.5355 9.625 11.5Z" fill="#A6ABC8"/>
<path fill-rule="evenodd" clip-rule="evenodd" d="M9.66251 2.125C9.83623 1.26916 10.5929 0.625 11.5 0.625C12.5355 0.625 13.375 1.46447 13.375 2.5C13.375 3.53553 12.5355 4.375 11.5 4.375C10.5929 4.375 9.83623 3.73084 9.66251 2.875H7.375V11.5C7.375 11.7071 7.20711 11.875 7 11.875H4.33749C4.16377 12.7308 3.40711 13.375 2.5 13.375C1.46447 13.375 0.625 12.5355 0.625 11.5C0.625 10.4645 1.46447 9.625 2.5 9.625C3.40711 9.625 4.16377 10.2692 4.33749 11.125H6.625V2.5C6.625 2.29289 6.79289 2.125 7 2.125H9.66251ZM11.5 1.375C10.8787 1.375 10.375 1.87868 10.375 2.5C10.375 3.12132 10.8787 3.625 11.5 3.625C12.1213 3.625 12.625 3.12132 12.625 2.5C12.625 1.87868 12.1213 1.375 11.5 1.375ZM2.5 10.375C1.87868 10.375 1.375 10.8787 1.375 11.5C1.375 12.1213 1.87868 12.625 2.5 12.625C3.12132 12.625 3.625 12.1213 3.625 11.5C3.625 10.8787 3.12132 10.375 2.5 10.375Z" fill="#A6ABC8"/>
</svg>
