<svg width="78" height="45" viewBox="0 0 78 45" fill="none" xmlns="http://www.w3.org/2000/svg">
<path d="M27.6215 0.306944V27.2157H32.3814V10.8453L50.1795 27.318L50.3865 0H45.73V17.4958L27.6215 0.306944Z" fill="#3C499E"/>
<path fill-rule="evenodd" clip-rule="evenodd" d="M0 27.2949L12.7785 0L25.8637 27.2949H20.7523L18.6055 22.2857H7.36042L5.00918 27.2949H0ZM9.09819 18.1965L12.8806 9.71155L16.8675 18.1965H9.09819Z" fill="#3C499E"/>
<path fill-rule="evenodd" clip-rule="evenodd" d="M52.1362 27.2949L64.9147 0L77.9999 27.2949H72.8885L70.7417 22.2857H59.4967L57.1454 27.2949H52.1362ZM61.2347 18.1965L65.0171 9.71155L69.004 18.1965H61.2347Z" fill="#3C499E"/>
<rect y="30.0857" width="13.9286" height="13.9286" fill="#3C499E"/>
<path d="M7.11443 37.4518H4.93028L4.91851 36.4014H6.82596C7.14779 36.4014 7.42057 36.3555 7.64428 36.2637C7.87192 36.168 8.04461 36.0322 8.16235 35.8562C8.2801 35.6763 8.33897 35.4601 8.33897 35.2076C8.33897 34.9282 8.28402 34.7005 8.17413 34.5245C8.06423 34.3485 7.89547 34.2203 7.66783 34.14C7.44412 34.0596 7.15761 34.0194 6.8083 34.0194H5.37771V41.2286H3.90002V32.8715H6.8083C7.27927 32.8715 7.69923 32.9155 8.06816 33.0035C8.44102 33.0915 8.75696 33.2292 9.016 33.4167C9.27896 33.6004 9.47716 33.8338 9.6106 34.117C9.74797 34.4002 9.81666 34.7369 9.81666 35.1272C9.81666 35.4716 9.73227 35.7873 9.56351 36.0743C9.39474 36.3574 9.14552 36.5889 8.81583 36.7688C8.48615 36.9486 8.07601 37.0558 7.58541 37.0902L7.11443 37.4518ZM7.04967 41.2286H4.4652L5.13045 40.0864H7.04967C7.38328 40.0864 7.66194 40.0328 7.88566 39.9257C8.10937 39.8147 8.27617 39.6636 8.38607 39.4722C8.49989 39.2771 8.5568 39.0494 8.5568 38.7892C8.5568 38.5175 8.50774 38.2822 8.40962 38.0832C8.3115 37.8804 8.15647 37.7254 7.94453 37.6183C7.73259 37.5073 7.45589 37.4518 7.11443 37.4518H5.45424L5.46602 36.4014H7.62662L7.96219 36.7975C8.43317 36.8128 8.81976 36.9142 9.12197 37.1017C9.4281 37.2892 9.65574 37.5322 9.80488 37.8306C9.95402 38.1291 10.0286 38.4505 10.0286 38.7949C10.0286 39.3268 9.90889 39.7726 9.66948 40.1323C9.43399 40.492 9.09449 40.7656 8.65099 40.9531C8.20749 41.1368 7.67372 41.2286 7.04967 41.2286Z" fill="white"/>
<rect x="31.7571" y="30.0858" width="13.9286" height="13.9286" fill="#3C499E"/>
<path d="M41.8033 36.8002V37.2442C41.8033 37.8546 41.7237 38.4021 41.5647 38.8867C41.4056 39.3713 41.1781 39.7838 40.8821 40.1241C40.5899 40.4645 40.2384 40.7253 39.8278 40.9066C39.4172 41.0841 38.9621 41.1729 38.4627 41.1729C37.967 41.1729 37.5138 41.0841 37.1032 40.9066C36.6963 40.7253 36.343 40.4645 36.0433 40.1241C35.7437 39.7838 35.5106 39.3713 35.3441 38.8867C35.1814 38.4021 35.1 37.8546 35.1 37.2442V36.8002C35.1 36.1898 35.1814 35.6442 35.3441 35.1633C35.5069 34.6786 35.7363 34.2662 36.0322 33.9258C36.3319 33.5818 36.6852 33.321 37.0921 33.1434C37.5027 32.9621 37.9559 32.8715 38.4516 32.8715C38.951 32.8715 39.4061 32.9621 39.8167 33.1434C40.2273 33.321 40.5806 33.5818 40.8766 33.9258C41.1725 34.2662 41.4 34.6786 41.5591 35.1633C41.7219 35.6442 41.8033 36.1898 41.8033 36.8002ZM40.4104 37.2442V36.7891C40.4104 36.3378 40.3661 35.9401 40.2773 35.5961C40.1922 35.2483 40.0646 34.9579 39.8944 34.7249C39.7279 34.4881 39.5226 34.3106 39.2784 34.1922C39.0343 34.0701 38.7587 34.0091 38.4516 34.0091C38.1446 34.0091 37.8708 34.0701 37.6304 34.1922C37.3899 34.3106 37.1846 34.4881 37.0144 34.7249C36.8479 34.9579 36.7203 35.2483 36.6315 35.5961C36.5427 35.9401 36.4983 36.3378 36.4983 36.7891V37.2442C36.4983 37.6955 36.5427 38.095 36.6315 38.4428C36.7203 38.7905 36.8498 39.0846 37.02 39.3251C37.1938 39.5618 37.401 39.7413 37.6415 39.8633C37.8819 39.9817 38.1557 40.0409 38.4627 40.0409C38.7735 40.0409 39.0491 39.9817 39.2895 39.8633C39.53 39.7413 39.7335 39.5618 39.8999 39.3251C40.0664 39.0846 40.1922 38.7905 40.2773 38.4428C40.3661 38.095 40.4104 37.6955 40.4104 37.2442Z" fill="white"/>
<rect x="16.1572" y="30.0858" width="13.3714" height="13.9286" fill="#3C499E"/>
<path d="M25.6286 40.0864V41.2286H21.1629V40.0864H25.6286ZM21.5905 32.8715V41.2286H20.0571V32.8715H21.5905Z" fill="white"/>
<rect x="47.9143" y="30.0858" width="13.3714" height="13.9286" fill="#3C499E"/>
<path d="M56.2509 38.3944H57.6288C57.5847 38.9198 57.4378 39.3883 57.1879 39.7999C56.938 40.2078 56.5871 40.5293 56.1351 40.7644C55.6831 40.9996 55.1338 41.1172 54.4871 41.1172C53.991 41.1172 53.5446 41.029 53.1477 40.8526C52.7508 40.6726 52.411 40.419 52.128 40.092C51.8451 39.7613 51.6283 39.3626 51.4776 38.8959C51.3306 38.4293 51.2571 37.9075 51.2571 37.3306V36.6636C51.2571 36.0867 51.3325 35.5649 51.4831 35.0983C51.6375 34.6316 51.8579 34.2329 52.1445 33.9022C52.4312 33.5678 52.7747 33.3124 53.1753 33.1361C53.5795 32.9597 54.0333 32.8715 54.5367 32.8715C55.1761 32.8715 55.7162 32.9891 56.1572 33.2242C56.5981 33.4594 56.9398 33.7846 57.1824 34.1998C57.4286 34.6151 57.5792 35.0909 57.6343 35.6274H56.2564C56.2196 35.282 56.1388 34.9862 56.0139 34.74C55.8926 34.4938 55.7125 34.3064 55.4737 34.1778C55.2349 34.0455 54.9225 33.9794 54.5367 33.9794C54.2207 33.9794 53.9451 34.0382 53.7099 34.1557C53.4747 34.2733 53.2781 34.446 53.1201 34.6739C52.9621 34.9017 52.8427 35.1828 52.7619 35.5172C52.6847 35.8479 52.6461 36.2264 52.6461 36.6526V37.3306C52.6461 37.7348 52.681 38.1022 52.7508 38.4329C52.8243 38.76 52.9346 39.0411 53.0816 39.2762C53.2322 39.5114 53.4233 39.6933 53.6548 39.8219C53.8863 39.9505 54.1637 40.0148 54.4871 40.0148C54.8803 40.0148 55.1981 39.9524 55.4406 39.8274C55.6868 39.7025 55.8724 39.5206 55.9973 39.2818C56.1259 39.0392 56.2104 38.7434 56.2509 38.3944Z" fill="white"/>
<rect x="64.0714" y="30.0858" width="13.9286" height="13.9286" fill="#3C499E"/>
<path d="M72.408 38.3944H73.786C73.7419 38.9198 73.5949 39.3883 73.345 39.7999C73.0951 40.2078 72.7442 40.5293 72.2923 40.7644C71.8403 40.9996 71.2909 41.1172 70.6442 41.1172C70.1481 41.1172 69.7017 41.029 69.3048 40.8526C68.908 40.6726 68.5681 40.419 68.2851 40.092C68.0022 39.7613 67.7854 39.3626 67.6347 38.8959C67.4878 38.4293 67.4143 37.9075 67.4143 37.3306V36.6636C67.4143 36.0867 67.4896 35.5649 67.6403 35.0983C67.7946 34.6316 68.0151 34.2329 68.3017 33.9022C68.5883 33.5678 68.9319 33.3124 69.3324 33.1361C69.7366 32.9597 70.1904 32.8715 70.6938 32.8715C71.3332 32.8715 71.8734 32.9891 72.3143 33.2242C72.7552 33.4594 73.097 33.7846 73.3395 34.1998C73.5857 34.6151 73.7364 35.0909 73.7915 35.6274H72.4135C72.3768 35.282 72.2959 34.9862 72.171 34.74C72.0497 34.4938 71.8697 34.3064 71.6308 34.1778C71.392 34.0455 71.0797 33.9794 70.6938 33.9794C70.3778 33.9794 70.1022 34.0382 69.867 34.1557C69.6319 34.2733 69.4353 34.446 69.2773 34.6739C69.1193 34.9017 68.9998 35.1828 68.919 35.5172C68.8418 35.8479 68.8033 36.2264 68.8033 36.6526V37.3306C68.8033 37.7348 68.8382 38.1022 68.908 38.4329C68.9815 38.76 69.0917 39.0411 69.2387 39.2762C69.3894 39.5114 69.5804 39.6933 69.8119 39.8219C70.0434 39.9505 70.3209 40.0148 70.6442 40.0148C71.0374 40.0148 71.3552 39.9524 71.5978 39.8274C71.844 39.7025 72.0295 39.5206 72.1545 39.2818C72.2831 39.0392 72.3676 38.7434 72.408 38.3944Z" fill="white"/>
</svg>
