<svg width="13" height="12" viewBox="0 0 13 12" fill="none" xmlns="http://www.w3.org/2000/svg">
<path fill-rule="evenodd" clip-rule="evenodd" d="M4.875 0.375C4.25368 0.375 3.75 0.87868 3.75 1.5V3.75C3.75 4.02976 3.85212 4.28567 4.02111 4.48249L2.07754 6.75H1.125C0.50368 6.75 0 7.25368 0 7.875V10.125C0 10.7463 0.50368 11.25 1.125 11.25H3.375C3.99632 11.25 4.5 10.7463 4.5 10.125V7.875C4.5 7.25368 3.99632 6.75 3.375 6.75H3.06535L4.68603 4.8592C4.74747 4.86959 4.8106 4.875 4.875 4.875H7.125C7.1894 4.875 7.25254 4.86959 7.31398 4.8592L8.93619 6.75178C8.34456 6.78486 7.875 7.27509 7.875 7.875V10.125C7.875 10.7463 8.37868 11.25 9 11.25H11.25C11.8713 11.25 12.375 10.7463 12.375 10.125V7.875C12.375 7.25368 11.8713 6.75 11.25 6.75H9.92248L7.97889 4.48249C8.14788 4.28567 8.25 4.02976 8.25 3.75V1.5C8.25 0.87868 7.74632 0.375 7.125 0.375H4.875ZM9.74695 7.5C9.7491 7.50002 9.75126 7.50002 9.75341 7.5H11.25C11.4571 7.5 11.625 7.66789 11.625 7.875V10.125C11.625 10.3321 11.4571 10.5 11.25 10.5H9C8.79289 10.5 8.625 10.3321 8.625 10.125V7.875C8.625 7.66789 8.79289 7.5 9 7.5H9.74695ZM1.125 7.5H3.375C3.58211 7.5 3.75 7.66789 3.75 7.875V10.125C3.75 10.3321 3.58211 10.5 3.375 10.5H1.125C0.917893 10.5 0.75 10.3321 0.75 10.125V7.875C0.75 7.66789 0.917893 7.5 1.125 7.5ZM4.5 1.5C4.5 1.29289 4.66789 1.125 4.875 1.125H7.125C7.33211 1.125 7.5 1.29289 7.5 1.5V3.75C7.5 3.95711 7.33211 4.125 7.125 4.125H4.875C4.66789 4.125 4.5 3.95711 4.5 3.75V1.5Z" fill="#707FDD"/>
</svg>
