<svg width="8" height="11" viewBox="0 0 8 11" fill="none" xmlns="http://www.w3.org/2000/svg">
<path d="M8 11H7V10C7 9.60218 6.84196 9.22064 6.56066 8.93934C6.27936 8.65804 5.89782 8.5 5.5 8.5H2.5C2.10218 8.5 1.72064 8.65804 1.43934 8.93934C1.15804 9.22064 1 9.60218 1 10V11H0V10C0 9.33696 0.263392 8.70107 0.732233 8.23223C1.20107 7.76339 1.83696 7.5 2.5 7.5H5.5C6.16304 7.5 6.79893 7.76339 7.26777 8.23223C7.73661 8.70107 8 9.33696 8 10V11ZM4 6.5C3.60603 6.5 3.21593 6.4224 2.85195 6.27164C2.48797 6.12087 2.15726 5.8999 1.87868 5.62132C1.6001 5.34274 1.37913 5.01203 1.22836 4.64805C1.0776 4.28407 1 3.89397 1 3.5C1 3.10603 1.0776 2.71593 1.22836 2.35195C1.37913 1.98797 1.6001 1.65726 1.87868 1.37868C2.15726 1.1001 2.48797 0.879125 2.85195 0.728361C3.21593 0.577597 3.60603 0.5 4 0.5C4.79565 0.5 5.55871 0.81607 6.12132 1.37868C6.68393 1.94129 7 2.70435 7 3.5C7 4.29565 6.68393 5.05871 6.12132 5.62132C5.55871 6.18393 4.79565 6.5 4 6.5ZM4 5.5C4.53043 5.5 5.03914 5.28929 5.41421 4.91421C5.78929 4.53914 6 4.03043 6 3.5C6 2.96957 5.78929 2.46086 5.41421 2.08579C5.03914 1.71071 4.53043 1.5 4 1.5C3.46957 1.5 2.96086 1.71071 2.58579 2.08579C2.21071 2.46086 2 2.96957 2 3.5C2 4.03043 2.21071 4.53914 2.58579 4.91421C2.96086 5.28929 3.46957 5.5 4 5.5Z" fill="#757575"/>
</svg>
