<svg width="16" height="15" viewBox="0 0 16 15" fill="none" xmlns="http://www.w3.org/2000/svg">
<path fill-rule="evenodd" clip-rule="evenodd" d="M8.1576 0.909725C8.05763 0.863425 7.94237 0.863425 7.8424 0.909725L4.0924 2.64657C3.95984 2.70796 3.875 2.84075 3.875 2.98684V8.16712L1.05125 9.93196C0.938691 10.0023 0.871707 10.1269 0.875125 10.2596C0.878542 10.3923 0.951852 10.5133 1.06788 10.5778L7.81788 14.3278C7.93599 14.3934 8.08026 14.3904 8.19554 14.3199L14.9455 10.1949C15.0619 10.1239 15.1304 9.99525 15.1247 9.85905C15.1189 9.72285 15.0396 9.60052 14.9177 9.53955L12.125 8.1432V2.98684C12.125 2.84075 12.0402 2.70796 11.9076 2.64657L8.1576 0.909725ZM12.125 8.98172V9.57895C12.125 9.71276 12.0537 9.83644 11.9379 9.90348L8.18789 12.0745C8.07167 12.1418 7.92833 12.1418 7.81211 12.0745L4.06211 9.90348C3.9463 9.83644 3.875 9.71276 3.875 9.57895V9.05155L1.98796 10.231L7.991 13.566L13.9771 9.90779L12.125 8.98172ZM7.625 5.09982L4.625 3.59456V9.36274L7.625 11.0996V5.09982ZM11.375 9.36274L8.375 11.0996V5.09982L11.375 3.59456V9.36274ZM10.8869 3.00035L8 4.44886L5.11311 3.00035L8 1.66327L10.8869 3.00035Z" fill="#A6ABC8"/>
</svg>
