<svg width="10" height="10" viewBox="0 0 10 10" fill="none" xmlns="http://www.w3.org/2000/svg">
<path fill-rule="evenodd" clip-rule="evenodd" d="M0.125 0.5C0.125 0.292893 0.292893 0.125 0.5 0.125H4C4.20711 0.125 4.375 0.292893 4.375 0.5V4C4.375 4.20711 4.20711 4.375 4 4.375H0.5C0.292893 4.375 0.125 4.20711 0.125 4V0.5ZM0.875 0.875V3.625H3.625V0.875H0.875ZM5.625 0.5C5.625 0.292893 5.79289 0.125 6 0.125H9.5C9.70711 0.125 9.875 0.292893 9.875 0.5V4C9.875 4.20711 9.70711 4.375 9.5 4.375H6C5.79289 4.375 5.625 4.20711 5.625 4V0.5ZM6.375 0.875V3.625H9.125V0.875H6.375ZM0.125 6C0.125 5.79289 0.292893 5.625 0.5 5.625H4C4.20711 5.625 4.375 5.79289 4.375 6V9.5C4.375 9.70711 4.20711 9.875 4 9.875H0.5C0.292893 9.875 0.125 9.70711 0.125 9.5V6ZM0.875 6.375V9.125H3.625V6.375H0.875ZM5.625 6C5.625 5.79289 5.79289 5.625 6 5.625H9.5C9.70711 5.625 9.875 5.79289 9.875 6V9.5C9.875 9.70711 9.70711 9.875 9.5 9.875H6C5.79289 9.875 5.625 9.70711 5.625 9.5V6ZM6.375 6.375V9.125H9.125V6.375H6.375Z" fill="#757575"/>
</svg>
